<svg xmlns="http://www.w3.org/2000/svg" viewBox="0 0 128 128" width="128" height="128">
  <!-- Ears -->
  <circle cx="38" cy="30" r="14" fill="#8D6E63"/>
  <circle cx="90" cy="30" r="14" fill="#8D6E63"/>
  <circle cx="38" cy="30" r="8" fill="#5D4037"/>
  <circle cx="90" cy="30" r="8" fill="#5D4037"/>
  <!-- Head -->
  <circle cx="64" cy="52" r="30" fill="#8D6E63"/>
  <!-- Face patch -->
  <ellipse cx="64" cy="58" rx="18" ry="14" fill="#A1887F"/>
  <!-- Eyes -->
  <circle cx="50" cy="48" r="8" fill="#FFFFFF"/>
  <circle cx="78" cy="48" r="8" fill="#FFFFFF"/>
  <circle cx="52" cy="48" r="5" fill="#131230"/>
  <circle cx="80" cy="48" r="5" fill="#131230"/>
  <circle cx="53" cy="46" r="2" fill="#FFFFFF"/>
  <circle cx="81" cy="46" r="2" fill="#FFFFFF"/>
  <!-- Nose -->
  <ellipse cx="64" cy="58" rx="7" ry="5" fill="#5D4037"/>
  <ellipse cx="62" cy="57" r="2" fill="#8D6E63"/>
  <!-- Mouth -->
  <path d="M56 66 Q64 72 72 66" fill="none" stroke="#5D4037" stroke-width="2" stroke-linecap="round"/>
  <!-- Body -->
  <ellipse cx="64" cy="96" rx="26" ry="18" fill="#131230"/>
  <line x1="64" y1="82" x2="64" y2="108" stroke="#C8102E" stroke-width="2"/>
</svg>