<svg xmlns="http://www.w3.org/2000/svg" viewBox="0 0 128 128" width="128" height="128">
  <!-- Head -->
  <circle cx="64" cy="52" r="28" fill="#5D4037"/>
  <!-- Head feathers -->
  <path d="M52 26 L48 10 L56 22Z" fill="#F37321"/>
  <path d="M64 24 L64 6 L70 20Z" fill="#FFB300"/>
  <path d="M76 26 L80 10 L72 22Z" fill="#F37321"/>
  <!-- Face -->
  <ellipse cx="64" cy="56" rx="18" ry="14" fill="#FFE0B2"/>
  <!-- Eyes -->
  <circle cx="54" cy="48" r="7" fill="#FFFFFF"/>
  <circle cx="74" cy="48" r="7" fill="#FFFFFF"/>
  <circle cx="55" cy="48" r="4.5" fill="#000000"/>
  <circle cx="75" cy="48" r="4.5" fill="#000000"/>
  <circle cx="56" cy="46" r="2" fill="#FFFFFF"/>
  <circle cx="76" cy="46" r="2" fill="#FFFFFF"/>
  <!-- Eyebrows -->
  <path d="M46 40 L58 42" stroke="#5D4037" stroke-width="2.5" stroke-linecap="round"/>
  <path d="M82 40 L70 42" stroke="#5D4037" stroke-width="2.5" stroke-linecap="round"/>
  <!-- Beak -->
  <path d="M56 56 L64 66 L72 56Z" fill="#FFB300"/>
  <!-- Body -->
  <ellipse cx="64" cy="96" rx="24" ry="18" fill="#F37321"/>
  <!-- Wings -->
  <path d="M34 80 Q20 70 24 56 Q30 68 40 76Z" fill="#5D4037"/>
  <path d="M94 80 Q108 70 104 56 Q98 68 88 76Z" fill="#5D4037"/>
</svg>