<svg xmlns="http://www.w3.org/2000/svg" viewBox="0 0 128 128" width="128" height="128">
  <!-- Tiger head -->
  <circle cx="64" cy="56" r="30" fill="#FFB74D"/>
  <!-- Ears -->
  <path d="M34 38 L40 18 L50 34Z" fill="#FFB74D"/>
  <path d="M94 38 L88 18 L78 34Z" fill="#FFB74D"/>
  <path d="M38 35 L42 22 L48 33Z" fill="#FF8A65"/>
  <path d="M90 35 L86 22 L80 33Z" fill="#FF8A65"/>
  <!-- Tiger stripes -->
  <path d="M44 40 Q48 36 52 40" fill="none" stroke="#000000" stroke-width="2.5" stroke-linecap="round"/>
  <path d="M76 40 Q80 36 84 40" fill="none" stroke="#000000" stroke-width="2.5" stroke-linecap="round"/>
  <path d="M58 34 Q64 30 70 34" fill="none" stroke="#000000" stroke-width="2.5" stroke-linecap="round"/>
  <!-- Eyes -->
  <circle cx="50" cy="52" r="8" fill="#FFFFFF"/>
  <circle cx="78" cy="52" r="8" fill="#FFFFFF"/>
  <circle cx="52" cy="52" r="5" fill="#000000"/>
  <circle cx="80" cy="52" r="5" fill="#000000"/>
  <circle cx="53" cy="50" r="2" fill="#FFFFFF"/>
  <circle cx="81" cy="50" r="2" fill="#FFFFFF"/>
  <!-- Nose -->
  <ellipse cx="64" cy="62" rx="6" ry="4" fill="#FF7043"/>
  <!-- Mouth -->
  <path d="M56 68 Q64 76 72 68" fill="none" stroke="#000000" stroke-width="2" stroke-linecap="round"/>
  <!-- Whiskers -->
  <line x1="30" y1="58" x2="44" y2="62" stroke="#000000" stroke-width="1.5"/>
  <line x1="30" y1="66" x2="44" y2="66" stroke="#000000" stroke-width="1.5"/>
  <line x1="98" y1="58" x2="84" y2="62" stroke="#000000" stroke-width="1.5"/>
  <line x1="98" y1="66" x2="84" y2="66" stroke="#000000" stroke-width="1.5"/>
  <!-- Body/uniform -->
  <ellipse cx="64" cy="96" rx="26" ry="18" fill="#C8102E"/>
  <line x1="64" y1="82" x2="64" y2="110" stroke="#000000" stroke-width="2"/>
</svg>