<svg xmlns="http://www.w3.org/2000/svg" viewBox="0 0 128 128" width="128" height="128">
  <!-- Background circle -->
  <!-- Body -->
  <ellipse cx="64" cy="90" rx="30" ry="20" fill="#FFFFFF"/>
  <!-- Head -->
  <circle cx="64" cy="52" r="28" fill="#FFFFFF"/>
  <!-- Wings -->
  <path d="M30 70 Q15 55 20 40 Q25 50 36 58Z" fill="#E0E0E0"/>
  <path d="M98 70 Q113 55 108 40 Q103 50 92 58Z" fill="#E0E0E0"/>
  <!-- Beak -->
  <path d="M56 58 L64 68 L72 58Z" fill="#FFB300"/>
  <!-- Eyes -->
  <circle cx="50" cy="48" r="8" fill="#002B7F"/>
  <circle cx="78" cy="48" r="8" fill="#002B7F"/>
  <circle cx="52" cy="46" r="3" fill="#FFFFFF"/>
  <circle cx="80" cy="46" r="3" fill="#FFFFFF"/>
  <!-- Helmet -->
  <path d="M36 42 Q36 24 64 20 Q92 24 92 42" fill="none" stroke="#002B7F" stroke-width="4" stroke-linecap="round"/>
  <rect x="58" y="18" width="12" height="6" rx="3" fill="#C8102E"/>
  <!-- Cheeks -->
  <circle cx="40" cy="58" r="5" fill="#FFB3B3" opacity="0.5"/>
  <circle cx="88" cy="58" r="5" fill="#FFB3B3" opacity="0.5"/>
  <!-- Uniform collar -->
  <path d="M48 78 L64 84 L80 78" fill="none" stroke="#C8102E" stroke-width="2"/>
</svg>