<svg xmlns="http://www.w3.org/2000/svg" viewBox="0 0 128 128" width="128" height="128">
  <!-- Head -->
  <circle cx="64" cy="52" r="28" fill="#4CAF50"/>
  <!-- Head spikes -->
  <ellipse cx="46" cy="24" rx="6" ry="12" fill="#388E3C" transform="rotate(-15,46,24)"/>
  <ellipse cx="64" cy="20" rx="6" ry="14" fill="#388E3C"/>
  <ellipse cx="82" cy="24" rx="6" ry="12" fill="#388E3C" transform="rotate(15,82,24)"/>
  <!-- Face -->
  <ellipse cx="64" cy="58" rx="20" ry="14" fill="#A5D6A7"/>
  <!-- Eyes -->
  <circle cx="52" cy="48" r="8" fill="#FFFFFF"/>
  <circle cx="76" cy="48" r="8" fill="#FFFFFF"/>
  <circle cx="54" cy="48" r="5" fill="#071D49"/>
  <circle cx="78" cy="48" r="5" fill="#071D49"/>
  <circle cx="55" cy="46" r="2" fill="#FFFFFF"/>
  <circle cx="79" cy="46" r="2" fill="#FFFFFF"/>
  <!-- Nostrils -->
  <circle cx="60" cy="60" r="2.5" fill="#388E3C"/>
  <circle cx="68" cy="60" r="2.5" fill="#388E3C"/>
  <!-- Mouth -->
  <path d="M52 68 Q64 76 76 68" fill="none" stroke="#2E7D32" stroke-width="2.5" stroke-linecap="round"/>
  <!-- Teeth -->
  <rect x="58" y="68" width="5" height="4" rx="1" fill="#FFFFFF"/>
  <rect x="65" y="68" width="5" height="4" rx="1" fill="#FFFFFF"/>
  <!-- Body -->
  <ellipse cx="64" cy="96" rx="26" ry="18" fill="#071D49"/>
  <text x="64" y="102" text-anchor="middle" fill="#B89560" font-size="14" font-weight="bold" font-family="Arial">NC</text>
</svg>