<svg xmlns="http://www.w3.org/2000/svg" viewBox="0 0 128 128" width="128" height="128">
  <!-- Mane -->
  <circle cx="64" cy="52" r="34" fill="#D4A017"/>
  <circle cx="44" cy="32" r="10" fill="#C69214"/>
  <circle cx="84" cy="32" r="10" fill="#C69214"/>
  <circle cx="34" cy="46" r="9" fill="#C69214"/>
  <circle cx="94" cy="46" r="9" fill="#C69214"/>
  <circle cx="38" cy="62" r="8" fill="#C69214"/>
  <circle cx="90" cy="62" r="8" fill="#C69214"/>
  <!-- Face -->
  <circle cx="64" cy="54" r="24" fill="#FFB74D"/>
  <!-- Eyes -->
  <circle cx="54" cy="50" r="7" fill="#FFFFFF"/>
  <circle cx="74" cy="50" r="7" fill="#FFFFFF"/>
  <circle cx="55" cy="50" r="4.5" fill="#074CA1"/>
  <circle cx="75" cy="50" r="4.5" fill="#074CA1"/>
  <circle cx="56" cy="48" r="2" fill="#FFFFFF"/>
  <circle cx="76" cy="48" r="2" fill="#FFFFFF"/>
  <!-- Nose -->
  <ellipse cx="64" cy="60" rx="5" ry="3.5" fill="#FF8A65"/>
  <!-- Mouth -->
  <path d="M56 66 Q64 73 72 66" fill="none" stroke="#5D4037" stroke-width="2" stroke-linecap="round"/>
  <!-- Body -->
  <ellipse cx="64" cy="96" rx="24" ry="18" fill="#074CA1"/>
  <!-- Uniform number -->
  <text x="64" y="102" text-anchor="middle" fill="#FFFFFF" font-size="16" font-weight="bold" font-family="Arial">SS</text>
</svg>