<svg xmlns="http://www.w3.org/2000/svg" viewBox="0 0 128 128" width="128" height="128">
  <!-- Helmet -->
  <path d="M34 48 Q34 20 64 16 Q94 20 94 48" fill="#CE0E2D"/>
  <path d="M34 48 Q34 24 64 20 Q94 24 94 48" fill="#B00020"/>
  <!-- Visor -->
  <path d="M38 48 L90 48 L86 54 L42 54Z" fill="#FFD700" opacity="0.8"/>
  <!-- Head -->
  <circle cx="64" cy="58" r="26" fill="#E8E8E8"/>
  <!-- Eyes -->
  <path d="M46 52 L56 48 L56 56Z" fill="#FFD700"/>
  <path d="M82 52 L72 48 L72 56Z" fill="#FFD700"/>
  <circle cx="52" cy="52" r="3" fill="#CE0E2D"/>
  <circle cx="76" cy="52" r="3" fill="#CE0E2D"/>
  <!-- Mouth -->
  <path d="M54 66 L64 62 L74 66" fill="none" stroke="#666666" stroke-width="2" stroke-linecap="round"/>
  <!-- Antenna -->
  <line x1="64" y1="20" x2="64" y2="8" stroke="#FFD700" stroke-width="3"/>
  <circle cx="64" cy="6" r="4" fill="#FFD700"/>
  <!-- Body -->
  <ellipse cx="64" cy="96" rx="24" ry="18" fill="#CE0E2D"/>
  <path d="M52 88 L76 88 L74 104 L54 104Z" fill="#B00020"/>
  <!-- Star -->
  <polygon points="64,90 66,96 72,96 67,100 69,106 64,102 59,106 61,100 56,96 62,96" fill="#FFD700"/>
</svg>